<?xml version="1.0" encoding="UTF-8" standalone="no"?>
<!DOCTYPE svg PUBLIC "-//W3C//DTD SVG 1.1//EN"
 "http://www.w3.org/Graphics/SVG/1.1/DTD/svg11.dtd">
<!-- Generated by graphviz version 2.36.0 (20140111.2315)
 -->
<!-- Title: G Pages: 1 -->
<svg width="700pt" height="1370pt"
 viewBox="0.00 0.00 700.00 1370.00" xmlns="http://www.w3.org/2000/svg" xmlns:xlink="http://www.w3.org/1999/xlink">
<g id="graph0" class="graph" transform="scale(1 1) rotate(0) translate(4 1366)">
<title>G</title>
<polygon fill="white" stroke="none" points="-4,4 -4,-1366 696,-1366 696,4 -4,4"/>
<!-- n1 -->
<g id="node1" class="node"><title>n1</title>
<g id="a_node1"><a xlink:title="[main.lua]:86_">
<ellipse fill="none" stroke="black" cx="346" cy="-244" rx="183.272" ry="111.946"/>
<text text-anchor="middle" x="346" y="-307.8" font-family="Times,serif" font-size="14.00">Node1</text>
<text text-anchor="start" x="224" y="-292.8" font-family="Times,serif" font-size="14.00">input = {Tensor[1x20]}</text>
<text text-anchor="start" x="224" y="-277.8" font-family="Times,serif" font-size="14.00">module = nn.Sequential {</text>
<text text-anchor="start" x="224" y="-262.8" font-family="Times,serif" font-size="14.00"> &#160;[input &#45;&gt; (1) &#45;&gt; (2) &#45;&gt; (3) &#45;&gt; (4) &#45;&gt; output]</text>
<text text-anchor="start" x="224" y="-247.8" font-family="Times,serif" font-size="14.00"> &#160;(1): nn.Linear(20 &#45;&gt; 400)</text>
<text text-anchor="start" x="224" y="-232.8" font-family="Times,serif" font-size="14.00"> &#160;(2): nn.ReLU</text>
<text text-anchor="start" x="224" y="-217.8" font-family="Times,serif" font-size="14.00"> &#160;(3): nn.Linear(400 &#45;&gt; 784)</text>
<text text-anchor="start" x="224" y="-202.8" font-family="Times,serif" font-size="14.00"> &#160;(4): nn.Sigmoid</text>
<text text-anchor="start" x="224" y="-187.8" font-family="Times,serif" font-size="14.00">}</text>
<text text-anchor="middle" x="346" y="-172.8" font-family="Times,serif" font-size="14.00">reverseMap = {}</text>
</a>
</g>
</g>
<!-- n2 -->
<g id="node2" class="node"><title>n2</title>
<g id="a_node2"><a xlink:title="[[C]]:&#45;1_">
<ellipse fill="none" stroke="black" cx="346" cy="-48" rx="217.184" ry="48.1667"/>
<text text-anchor="middle" x="346" y="-66.8" font-family="Times,serif" font-size="14.00">Node2</text>
<text text-anchor="start" x="200" y="-51.8" font-family="Times,serif" font-size="14.00">input = {Tensor[1x784],Tensor[1x20],Tensor[1x20]}</text>
<text text-anchor="start" x="200" y="-36.8" font-family="Times,serif" font-size="14.00">mapindex = {Node1,Node3,Node4}</text>
<text text-anchor="middle" x="346" y="-21.8" font-family="Times,serif" font-size="14.00">reverseMap = {}</text>
</a>
</g>
</g>
<!-- n1&#45;&gt;n2 -->
<g id="edge1" class="edge"><title>n1&#45;&gt;n2</title>
<path fill="none" stroke="black" d="M346,-132.118C346,-123.285 346,-114.61 346,-106.392"/>
<polygon fill="black" stroke="black" points="349.5,-106.25 346,-96.2503 342.5,-106.25 349.5,-106.25"/>
</g>
<!-- n3 -->
<g id="node3" class="node"><title>n3</title>
<g id="a_node3"><a xlink:title="[main.lua]:73_&#45;1">
<ellipse fill="none" stroke="black" cx="168" cy="-594" rx="167.938" ry="48.1667"/>
<text text-anchor="middle" x="168" y="-612.8" font-family="Times,serif" font-size="14.00">Node3</text>
<text text-anchor="start" x="57" y="-597.8" font-family="Times,serif" font-size="14.00">input = {{Tensor[1x20],Tensor[1x20]}}</text>
<text text-anchor="start" x="57" y="-582.8" font-family="Times,serif" font-size="14.00">selectindex = 1</text>
<text text-anchor="middle" x="168" y="-567.8" font-family="Times,serif" font-size="14.00">reverseMap = {}</text>
</a>
</g>
</g>
<!-- n3&#45;&gt;n2 -->
<g id="edge2" class="edge"><title>n3&#45;&gt;n2</title>
<path fill="none" stroke="black" d="M150.16,-546.09C119.557,-457.042 68.1131,-260.91 153,-132 164.378,-114.722 180.187,-101.026 197.907,-90.1726"/>
<polygon fill="black" stroke="black" points="199.837,-93.0999 206.748,-85.0697 196.338,-87.0373 199.837,-93.0999"/>
</g>
<!-- n5 -->
<g id="node5" class="node"><title>n5</title>
<g id="a_node5"><a xlink:title="[main.lua]:74_">
<ellipse fill="none" stroke="black" cx="346" cy="-451" rx="158.088" ry="58.8803"/>
<text text-anchor="middle" x="346" y="-477.3" font-family="Times,serif" font-size="14.00">Node5</text>
<text text-anchor="start" x="242" y="-462.3" font-family="Times,serif" font-size="14.00">input = {Tensor[1x20],Tensor[1x20]}</text>
<text text-anchor="start" x="242" y="-447.3" font-family="Times,serif" font-size="14.00">module = nn.Sampler</text>
<text text-anchor="start" x="242" y="-432.3" font-family="Times,serif" font-size="14.00">reverseMap = {}</text>
<text text-anchor="middle" x="346" y="-417.3" font-family="Times,serif" font-size="14.00">mapindex = {Node3,Node4}</text>
</a>
</g>
</g>
<!-- n3&#45;&gt;n5 -->
<g id="edge7" class="edge"><title>n3&#45;&gt;n5</title>
<path fill="none" stroke="black" d="M224.32,-548.387C239.325,-536.501 255.769,-523.475 271.582,-510.949"/>
<polygon fill="black" stroke="black" points="274.117,-513.406 279.783,-504.453 269.771,-507.919 274.117,-513.406"/>
</g>
<!-- n4 -->
<g id="node4" class="node"><title>n4</title>
<g id="a_node4"><a xlink:title="[main.lua]:73_&#45;2">
<ellipse fill="none" stroke="black" cx="523" cy="-594" rx="167.938" ry="48.1667"/>
<text text-anchor="middle" x="523" y="-612.8" font-family="Times,serif" font-size="14.00">Node4</text>
<text text-anchor="start" x="412" y="-597.8" font-family="Times,serif" font-size="14.00">input = {{Tensor[1x20],Tensor[1x20]}}</text>
<text text-anchor="start" x="412" y="-582.8" font-family="Times,serif" font-size="14.00">selectindex = 2</text>
<text text-anchor="middle" x="523" y="-567.8" font-family="Times,serif" font-size="14.00">reverseMap = {}</text>
</a>
</g>
</g>
<!-- n4&#45;&gt;n2 -->
<g id="edge3" class="edge"><title>n4&#45;&gt;n2</title>
<path fill="none" stroke="black" d="M540.818,-546.104C571.382,-457.081 622.765,-260.99 538,-132 526.688,-114.787 510.964,-101.127 493.338,-90.2904"/>
<polygon fill="black" stroke="black" points="494.951,-87.1797 484.544,-85.1944 491.441,-93.2364 494.951,-87.1797"/>
</g>
<!-- n4&#45;&gt;n5 -->
<g id="edge8" class="edge"><title>n4&#45;&gt;n5</title>
<path fill="none" stroke="black" d="M466.996,-548.387C452.075,-536.501 435.724,-523.475 420,-510.949"/>
<polygon fill="black" stroke="black" points="421.848,-507.946 411.845,-504.453 417.486,-513.421 421.848,-507.946"/>
</g>
<!-- n5&#45;&gt;n1 -->
<g id="edge4" class="edge"><title>n5&#45;&gt;n1</title>
<path fill="none" stroke="black" d="M346,-392.077C346,-383.819 346,-375.081 346,-366.147"/>
<polygon fill="black" stroke="black" points="349.5,-365.993 346,-355.993 342.5,-365.993 349.5,-365.993"/>
</g>
<!-- n6 -->
<g id="node6" class="node"><title>n6</title>
<g id="a_node6"><a xlink:title="[main.lua]:73_ split at [main.lua]:73&#45;mnode">
<ellipse fill="none" stroke="black" cx="345" cy="-726" rx="167.938" ry="48.1667"/>
<text text-anchor="middle" x="345" y="-744.8" font-family="Times,serif" font-size="14.00">Node6</text>
<text text-anchor="start" x="234" y="-729.8" font-family="Times,serif" font-size="14.00">input = {{Tensor[1x20],Tensor[1x20]}}</text>
<text text-anchor="start" x="234" y="-714.8" font-family="Times,serif" font-size="14.00">reverseMap = {}</text>
<text text-anchor="middle" x="345" y="-699.8" font-family="Times,serif" font-size="14.00">nSplitOutputs = 2</text>
</a>
</g>
</g>
<!-- n6&#45;&gt;n3 -->
<g id="edge5" class="edge"><title>n6&#45;&gt;n3</title>
<path fill="none" stroke="black" d="M285.076,-680.988C269.362,-669.446 252.301,-656.916 236.189,-645.082"/>
<polygon fill="black" stroke="black" points="237.994,-642.065 227.862,-638.967 233.85,-647.707 237.994,-642.065"/>
</g>
<!-- n6&#45;&gt;n4 -->
<g id="edge6" class="edge"><title>n6&#45;&gt;n4</title>
<path fill="none" stroke="black" d="M405.263,-680.988C421.066,-669.446 438.223,-656.916 454.426,-645.082"/>
<polygon fill="black" stroke="black" points="456.788,-647.691 462.799,-638.967 452.66,-642.038 456.788,-647.691"/>
</g>
<!-- n7 -->
<g id="node7" class="node"><title>n7</title>
<g id="a_node7"><a xlink:title="[main.lua]:73_">
<ellipse fill="none" stroke="black" cx="345" cy="-964" rx="158.088" ry="154.299"/>
<text text-anchor="middle" x="345" y="-1057.8" font-family="Times,serif" font-size="14.00">Node7</text>
<text text-anchor="start" x="241" y="-1042.8" font-family="Times,serif" font-size="14.00">input = {Tensor[1x784]}</text>
<text text-anchor="start" x="241" y="-1027.8" font-family="Times,serif" font-size="14.00">module = nn.Sequential {</text>
<text text-anchor="start" x="241" y="-1012.8" font-family="Times,serif" font-size="14.00"> &#160;[input &#45;&gt; (1) &#45;&gt; (2) &#45;&gt; (3) &#45;&gt; output]</text>
<text text-anchor="start" x="241" y="-997.8" font-family="Times,serif" font-size="14.00"> &#160;(1): nn.Linear(784 &#45;&gt; 400)</text>
<text text-anchor="start" x="241" y="-982.8" font-family="Times,serif" font-size="14.00"> &#160;(2): nn.ReLU</text>
<text text-anchor="start" x="241" y="-967.8" font-family="Times,serif" font-size="14.00"> &#160;(3): nn.ConcatTable {</text>
<text text-anchor="start" x="241" y="-952.8" font-family="Times,serif" font-size="14.00"> &#160;&#160;&#160;input</text>
<text text-anchor="start" x="241" y="-937.8" font-family="Times,serif" font-size="14.00"> &#160;&#160;&#160;&#160;&#160;|`&#45;&gt; (1): nn.Linear(400 &#45;&gt; 20)</text>
<text text-anchor="start" x="241" y="-922.8" font-family="Times,serif" font-size="14.00"> &#160;&#160;&#160;&#160;&#160;|`&#45;&gt; (2): nn.Linear(400 &#45;&gt; 20)</text>
<text text-anchor="start" x="241" y="-907.8" font-family="Times,serif" font-size="14.00"> &#160;&#160;&#160;&#160;&#160;&#160;... &#45;&gt; output</text>
<text text-anchor="start" x="241" y="-892.8" font-family="Times,serif" font-size="14.00"> &#160;}</text>
<text text-anchor="start" x="241" y="-877.8" font-family="Times,serif" font-size="14.00">}</text>
<text text-anchor="middle" x="345" y="-862.8" font-family="Times,serif" font-size="14.00">reverseMap = {}</text>
</a>
</g>
</g>
<!-- n7&#45;&gt;n6 -->
<g id="edge9" class="edge"><title>n7&#45;&gt;n6</title>
<path fill="none" stroke="black" d="M345,-809.541C345,-800.849 345,-792.439 345,-784.527"/>
<polygon fill="black" stroke="black" points="348.5,-784.43 345,-774.43 341.5,-784.43 348.5,-784.43"/>
</g>
<!-- n8 -->
<g id="node8" class="node"><title>n8</title>
<g id="a_node8"><a xlink:title="[main.lua]:72_">
<ellipse fill="none" stroke="black" cx="345" cy="-1202" rx="108.342" ry="48.1667"/>
<text text-anchor="middle" x="345" y="-1220.8" font-family="Times,serif" font-size="14.00">Node8</text>
<text text-anchor="start" x="276" y="-1205.8" font-family="Times,serif" font-size="14.00">input = {Tensor[1x784]}</text>
<text text-anchor="start" x="276" y="-1190.8" font-family="Times,serif" font-size="14.00">module = nn.Identity</text>
<text text-anchor="middle" x="345" y="-1175.8" font-family="Times,serif" font-size="14.00">reverseMap = {}</text>
</a>
</g>
</g>
<!-- n8&#45;&gt;n7 -->
<g id="edge10" class="edge"><title>n8&#45;&gt;n7</title>
<path fill="none" stroke="black" d="M345,-1153.81C345,-1145.99 345,-1137.51 345,-1128.63"/>
<polygon fill="black" stroke="black" points="348.5,-1128.44 345,-1118.44 341.5,-1128.44 348.5,-1128.44"/>
</g>
<!-- n9 -->
<g id="node9" class="node"><title>n9</title>
<g id="a_node9"><a xlink:title="[[C]]:&#45;1_">
<ellipse fill="none" stroke="black" cx="345" cy="-1324" rx="108.342" ry="37.4533"/>
<text text-anchor="middle" x="345" y="-1335.3" font-family="Times,serif" font-size="14.00">Node9</text>
<text text-anchor="start" x="276" y="-1320.3" font-family="Times,serif" font-size="14.00">input = {Tensor[1x784]}</text>
<text text-anchor="middle" x="345" y="-1305.3" font-family="Times,serif" font-size="14.00">reverseMap = {}</text>
</a>
</g>
</g>
<!-- n9&#45;&gt;n8 -->
<g id="edge11" class="edge"><title>n9&#45;&gt;n8</title>
<path fill="none" stroke="black" d="M345,-1286.34C345,-1278.22 345,-1269.42 345,-1260.68"/>
<polygon fill="black" stroke="black" points="348.5,-1260.5 345,-1250.5 341.5,-1260.5 348.5,-1260.5"/>
</g>
</g>
</svg>
