<?xml version="1.0" encoding="UTF-8" standalone="no"?>
<!DOCTYPE svg PUBLIC "-//W3C//DTD SVG 1.1//EN"
 "http://www.w3.org/Graphics/SVG/1.1/DTD/svg11.dtd">
<!-- Generated by graphviz version 2.36.0 (20140111.2315)
 -->
<!-- Title: G Pages: 1 -->
<svg width="1039pt" height="1370pt"
 viewBox="0.00 0.00 1039.00 1370.00" xmlns="http://www.w3.org/2000/svg" xmlns:xlink="http://www.w3.org/1999/xlink">
<g id="graph0" class="graph" transform="scale(1 1) rotate(0) translate(4 1366)">
<title>G</title>
<polygon fill="white" stroke="none" points="-4,4 -4,-1366 1035,-1366 1035,4 -4,4"/>
<!-- n1 -->
<g id="node1" class="node"><title>n1</title>
<g id="a_node1"><a xlink:title="[main.lua]:61_">
<ellipse fill="none" stroke="black" cx="515" cy="-244" rx="183.272" ry="111.946"/>
<text text-anchor="middle" x="515" y="-307.8" font-family="Times,serif" font-size="14.00">Node1</text>
<text text-anchor="start" x="393" y="-292.8" font-family="Times,serif" font-size="14.00">input = {torch.CudaTensor[1x20]}</text>
<text text-anchor="start" x="393" y="-277.8" font-family="Times,serif" font-size="14.00">module = nn.Sequential {</text>
<text text-anchor="start" x="393" y="-262.8" font-family="Times,serif" font-size="14.00"> &#160;[input &#45;&gt; (1) &#45;&gt; (2) &#45;&gt; (3) &#45;&gt; (4) &#45;&gt; output]</text>
<text text-anchor="start" x="393" y="-247.8" font-family="Times,serif" font-size="14.00"> &#160;(1): nn.Linear(20 &#45;&gt; 400)</text>
<text text-anchor="start" x="393" y="-232.8" font-family="Times,serif" font-size="14.00"> &#160;(2): nn.ReLU</text>
<text text-anchor="start" x="393" y="-217.8" font-family="Times,serif" font-size="14.00"> &#160;(3): nn.Linear(400 &#45;&gt; 784)</text>
<text text-anchor="start" x="393" y="-202.8" font-family="Times,serif" font-size="14.00"> &#160;(4): nn.Sigmoid</text>
<text text-anchor="start" x="393" y="-187.8" font-family="Times,serif" font-size="14.00">}</text>
<text text-anchor="middle" x="515" y="-172.8" font-family="Times,serif" font-size="14.00">reverseMap = {}</text>
</a>
</g>
</g>
<!-- n2 -->
<g id="node2" class="node"><title>n2</title>
<g id="a_node2"><a xlink:title="[[C]]:&#45;1_">
<ellipse fill="none" stroke="black" cx="515" cy="-48" rx="345.102" ry="48.1667"/>
<text text-anchor="middle" x="515" y="-66.8" font-family="Times,serif" font-size="14.00">Node2</text>
<text text-anchor="start" x="279" y="-51.8" font-family="Times,serif" font-size="14.00">input = {torch.CudaTensor[1x784],torch.CudaTensor[1x20],torch.CudaTensor[1x20]}</text>
<text text-anchor="start" x="279" y="-36.8" font-family="Times,serif" font-size="14.00">mapindex = {Node1,Node3,Node4}</text>
<text text-anchor="middle" x="515" y="-21.8" font-family="Times,serif" font-size="14.00">reverseMap = {}</text>
</a>
</g>
</g>
<!-- n1&#45;&gt;n2 -->
<g id="edge1" class="edge"><title>n1&#45;&gt;n2</title>
<path fill="none" stroke="black" d="M515,-132.118C515,-123.285 515,-114.61 515,-106.392"/>
<polygon fill="black" stroke="black" points="518.5,-106.25 515,-96.2503 511.5,-106.25 518.5,-106.25"/>
</g>
<!-- n3 -->
<g id="node3" class="node"><title>n3</title>
<g id="a_node3"><a xlink:title="[main.lua]:52_&#45;1">
<ellipse fill="none" stroke="black" cx="253" cy="-594" rx="253.216" ry="48.1667"/>
<text text-anchor="middle" x="253" y="-612.8" font-family="Times,serif" font-size="14.00">Node3</text>
<text text-anchor="start" x="82" y="-597.8" font-family="Times,serif" font-size="14.00">input = {{torch.CudaTensor[1x20],torch.CudaTensor[1x20]}}</text>
<text text-anchor="start" x="82" y="-582.8" font-family="Times,serif" font-size="14.00">selectindex = 1</text>
<text text-anchor="middle" x="253" y="-567.8" font-family="Times,serif" font-size="14.00">reverseMap = {}</text>
</a>
</g>
</g>
<!-- n3&#45;&gt;n2 -->
<g id="edge2" class="edge"><title>n3&#45;&gt;n2</title>
<path fill="none" stroke="black" d="M245.468,-545.863C233.71,-454.682 221.724,-252.537 322,-132 333.415,-118.278 347.519,-106.769 362.867,-97.129"/>
<polygon fill="black" stroke="black" points="364.723,-100.097 371.512,-91.9633 361.132,-94.0882 364.723,-100.097"/>
</g>
<!-- n5 -->
<g id="node5" class="node"><title>n5</title>
<g id="a_node5"><a xlink:title="[main.lua]:53_">
<ellipse fill="none" stroke="black" cx="515" cy="-451" rx="243.367" ry="58.8803"/>
<text text-anchor="middle" x="515" y="-477.3" font-family="Times,serif" font-size="14.00">Node5</text>
<text text-anchor="start" x="351" y="-462.3" font-family="Times,serif" font-size="14.00">input = {torch.CudaTensor[1x20],torch.CudaTensor[1x20]}</text>
<text text-anchor="start" x="351" y="-447.3" font-family="Times,serif" font-size="14.00">module = nn.Sampler</text>
<text text-anchor="start" x="351" y="-432.3" font-family="Times,serif" font-size="14.00">reverseMap = {}</text>
<text text-anchor="middle" x="515" y="-417.3" font-family="Times,serif" font-size="14.00">mapindex = {Node3,Node4}</text>
</a>
</g>
</g>
<!-- n3&#45;&gt;n5 -->
<g id="edge7" class="edge"><title>n3&#45;&gt;n5</title>
<path fill="none" stroke="black" d="M335.898,-548.387C358.63,-536.153 383.606,-522.712 407.503,-509.851"/>
<polygon fill="black" stroke="black" points="409.455,-512.776 416.602,-504.955 406.138,-506.612 409.455,-512.776"/>
</g>
<!-- n4 -->
<g id="node4" class="node"><title>n4</title>
<g id="a_node4"><a xlink:title="[main.lua]:52_&#45;2">
<ellipse fill="none" stroke="black" cx="777" cy="-594" rx="253.216" ry="48.1667"/>
<text text-anchor="middle" x="777" y="-612.8" font-family="Times,serif" font-size="14.00">Node4</text>
<text text-anchor="start" x="606" y="-597.8" font-family="Times,serif" font-size="14.00">input = {{torch.CudaTensor[1x20],torch.CudaTensor[1x20]}}</text>
<text text-anchor="start" x="606" y="-582.8" font-family="Times,serif" font-size="14.00">selectindex = 2</text>
<text text-anchor="middle" x="777" y="-567.8" font-family="Times,serif" font-size="14.00">reverseMap = {}</text>
</a>
</g>
</g>
<!-- n4&#45;&gt;n2 -->
<g id="edge3" class="edge"><title>n4&#45;&gt;n2</title>
<path fill="none" stroke="black" d="M784.408,-545.854C795.931,-454.657 807.415,-252.487 707,-132 695.524,-118.23 681.336,-106.685 665.908,-97.0181"/>
<polygon fill="black" stroke="black" points="667.601,-93.9524 657.219,-91.8387 664.016,-99.9653 667.601,-93.9524"/>
</g>
<!-- n4&#45;&gt;n5 -->
<g id="edge8" class="edge"><title>n4&#45;&gt;n5</title>
<path fill="none" stroke="black" d="M694.102,-548.387C671.37,-536.153 646.394,-522.712 622.497,-509.851"/>
<polygon fill="black" stroke="black" points="623.862,-506.612 613.398,-504.955 620.545,-512.776 623.862,-506.612"/>
</g>
<!-- n5&#45;&gt;n1 -->
<g id="edge4" class="edge"><title>n5&#45;&gt;n1</title>
<path fill="none" stroke="black" d="M515,-392.077C515,-383.819 515,-375.081 515,-366.147"/>
<polygon fill="black" stroke="black" points="518.5,-365.993 515,-355.993 511.5,-365.993 518.5,-365.993"/>
</g>
<!-- n6 -->
<g id="node6" class="node"><title>n6</title>
<g id="a_node6"><a xlink:title="[main.lua]:52_ split at [main.lua]:52&#45;mnode">
<ellipse fill="none" stroke="black" cx="515" cy="-726" rx="253.216" ry="48.1667"/>
<text text-anchor="middle" x="515" y="-744.8" font-family="Times,serif" font-size="14.00">Node6</text>
<text text-anchor="start" x="344" y="-729.8" font-family="Times,serif" font-size="14.00">input = {{torch.CudaTensor[1x20],torch.CudaTensor[1x20]}}</text>
<text text-anchor="start" x="344" y="-714.8" font-family="Times,serif" font-size="14.00">reverseMap = {}</text>
<text text-anchor="middle" x="515" y="-699.8" font-family="Times,serif" font-size="14.00">nSplitOutputs = 2</text>
</a>
</g>
</g>
<!-- n6&#45;&gt;n3 -->
<g id="edge5" class="edge"><title>n6&#45;&gt;n3</title>
<path fill="none" stroke="black" d="M425.933,-680.807C401.755,-668.81 375.446,-655.756 350.813,-643.533"/>
<polygon fill="black" stroke="black" points="352.334,-640.381 341.82,-639.071 349.223,-646.651 352.334,-640.381"/>
</g>
<!-- n6&#45;&gt;n4 -->
<g id="edge6" class="edge"><title>n6&#45;&gt;n4</title>
<path fill="none" stroke="black" d="M604.067,-680.807C628.245,-668.81 654.554,-655.756 679.187,-643.533"/>
<polygon fill="black" stroke="black" points="680.777,-646.651 688.18,-639.071 677.666,-640.381 680.777,-646.651"/>
</g>
<!-- n7 -->
<g id="node7" class="node"><title>n7</title>
<g id="a_node7"><a xlink:title="[main.lua]:52_">
<ellipse fill="none" stroke="black" cx="515" cy="-964" rx="158.088" ry="154.299"/>
<text text-anchor="middle" x="515" y="-1057.8" font-family="Times,serif" font-size="14.00">Node7</text>
<text text-anchor="start" x="411" y="-1042.8" font-family="Times,serif" font-size="14.00">input = {torch.CudaTensor[1x784]}</text>
<text text-anchor="start" x="411" y="-1027.8" font-family="Times,serif" font-size="14.00">module = nn.Sequential {</text>
<text text-anchor="start" x="411" y="-1012.8" font-family="Times,serif" font-size="14.00"> &#160;[input &#45;&gt; (1) &#45;&gt; (2) &#45;&gt; (3) &#45;&gt; output]</text>
<text text-anchor="start" x="411" y="-997.8" font-family="Times,serif" font-size="14.00"> &#160;(1): nn.Linear(784 &#45;&gt; 400)</text>
<text text-anchor="start" x="411" y="-982.8" font-family="Times,serif" font-size="14.00"> &#160;(2): nn.ReLU</text>
<text text-anchor="start" x="411" y="-967.8" font-family="Times,serif" font-size="14.00"> &#160;(3): nn.ConcatTable {</text>
<text text-anchor="start" x="411" y="-952.8" font-family="Times,serif" font-size="14.00"> &#160;&#160;&#160;input</text>
<text text-anchor="start" x="411" y="-937.8" font-family="Times,serif" font-size="14.00"> &#160;&#160;&#160;&#160;&#160;|`&#45;&gt; (1): nn.Linear(400 &#45;&gt; 20)</text>
<text text-anchor="start" x="411" y="-922.8" font-family="Times,serif" font-size="14.00"> &#160;&#160;&#160;&#160;&#160;|`&#45;&gt; (2): nn.Linear(400 &#45;&gt; 20)</text>
<text text-anchor="start" x="411" y="-907.8" font-family="Times,serif" font-size="14.00"> &#160;&#160;&#160;&#160;&#160;&#160;... &#45;&gt; output</text>
<text text-anchor="start" x="411" y="-892.8" font-family="Times,serif" font-size="14.00"> &#160;}</text>
<text text-anchor="start" x="411" y="-877.8" font-family="Times,serif" font-size="14.00">}</text>
<text text-anchor="middle" x="515" y="-862.8" font-family="Times,serif" font-size="14.00">reverseMap = {}</text>
</a>
</g>
</g>
<!-- n7&#45;&gt;n6 -->
<g id="edge9" class="edge"><title>n7&#45;&gt;n6</title>
<path fill="none" stroke="black" d="M515,-809.541C515,-800.849 515,-792.439 515,-784.527"/>
<polygon fill="black" stroke="black" points="518.5,-784.43 515,-774.43 511.5,-784.43 518.5,-784.43"/>
</g>
<!-- n8 -->
<g id="node8" class="node"><title>n8</title>
<g id="a_node8"><a xlink:title="[main.lua]:51_">
<ellipse fill="none" stroke="black" cx="515" cy="-1202" rx="150.982" ry="48.1667"/>
<text text-anchor="middle" x="515" y="-1220.8" font-family="Times,serif" font-size="14.00">Node8</text>
<text text-anchor="start" x="416" y="-1205.8" font-family="Times,serif" font-size="14.00">input = {torch.CudaTensor[1x784]}</text>
<text text-anchor="start" x="416" y="-1190.8" font-family="Times,serif" font-size="14.00">module = nn.Identity</text>
<text text-anchor="middle" x="515" y="-1175.8" font-family="Times,serif" font-size="14.00">reverseMap = {}</text>
</a>
</g>
</g>
<!-- n8&#45;&gt;n7 -->
<g id="edge10" class="edge"><title>n8&#45;&gt;n7</title>
<path fill="none" stroke="black" d="M515,-1153.81C515,-1145.99 515,-1137.51 515,-1128.63"/>
<polygon fill="black" stroke="black" points="518.5,-1128.44 515,-1118.44 511.5,-1128.44 518.5,-1128.44"/>
</g>
<!-- n9 -->
<g id="node9" class="node"><title>n9</title>
<g id="a_node9"><a xlink:title="[[C]]:&#45;1_">
<ellipse fill="none" stroke="black" cx="515" cy="-1324" rx="150.982" ry="37.4533"/>
<text text-anchor="middle" x="515" y="-1335.3" font-family="Times,serif" font-size="14.00">Node9</text>
<text text-anchor="start" x="416" y="-1320.3" font-family="Times,serif" font-size="14.00">input = {torch.CudaTensor[1x784]}</text>
<text text-anchor="middle" x="515" y="-1305.3" font-family="Times,serif" font-size="14.00">reverseMap = {}</text>
</a>
</g>
</g>
<!-- n9&#45;&gt;n8 -->
<g id="edge11" class="edge"><title>n9&#45;&gt;n8</title>
<path fill="none" stroke="black" d="M515,-1286.34C515,-1278.22 515,-1269.42 515,-1260.68"/>
<polygon fill="black" stroke="black" points="518.5,-1260.5 515,-1250.5 511.5,-1260.5 518.5,-1260.5"/>
</g>
</g>
</svg>
